<svg width="252" height="56" viewBox="0 0 252 56" fill="none" xmlns="http://www.w3.org/2000/svg">
<rect width="252" height="56" rx="3" fill="#130101"/>
<path d="M41.6758 19.7031L40.7969 19.7422C40.4193 18.9219 39.9245 18.1927 39.3125 17.5547C38.7135 16.9167 38.0365 16.3763 37.2812 15.9336C36.5391 15.4909 35.7513 15.1589 34.918 14.9375C34.0846 14.7031 33.2578 14.5859 32.4375 14.5859C31.4479 14.5859 30.5169 14.7812 29.6445 15.1719C28.7721 15.5625 27.9714 16.0964 27.2422 16.7734C26.513 17.4505 25.8555 18.2448 25.2695 19.1562C24.6966 20.0547 24.2083 21.0182 23.8047 22.0469C23.4141 23.0625 23.1146 24.1172 22.9062 25.2109C22.6979 26.3047 22.5938 27.3724 22.5938 28.4141C22.5938 29.4688 22.7174 30.5039 22.9648 31.5195C23.2122 32.5352 23.5638 33.5052 24.0195 34.4297C24.4753 35.3411 25.0352 36.181 25.6992 36.9492C26.3633 37.7174 27.1055 38.388 27.9258 38.9609C28.7461 39.5208 29.6445 39.957 30.6211 40.2695C31.5977 40.582 32.6328 40.7383 33.7266 40.7383C34.7161 40.7383 35.5885 40.6471 36.3438 40.4648C37.099 40.2695 37.75 40.0286 38.2969 39.7422C38.8568 39.4557 39.3255 39.1432 39.7031 38.8047C40.0807 38.4531 40.3932 38.1211 40.6406 37.8086C40.888 37.4961 41.0703 37.2227 41.1875 36.9883C41.3177 36.7409 41.4154 36.5781 41.4805 36.5L41.168 39.2539C40.8294 39.7096 40.3607 40.1328 39.7617 40.5234C39.1758 40.901 38.4857 41.2331 37.6914 41.5195C36.8971 41.819 36.0117 42.0469 35.0352 42.2031C34.0716 42.3724 33.0495 42.457 31.9688 42.457C30.5365 42.457 29.1432 42.3138 27.7891 42.0273C26.4479 41.7409 25.1849 41.3307 24 40.7969C22.8151 40.263 21.7279 39.6055 20.7383 38.8242C19.7617 38.0299 18.9154 37.138 18.1992 36.1484C17.4961 35.1589 16.9427 34.0651 16.5391 32.8672C16.1354 31.6693 15.9271 30.3867 15.9141 29.0195C15.9531 26.9102 16.3177 25.0156 17.0078 23.3359C17.7109 21.6432 18.6419 20.1719 19.8008 18.9219C20.9727 17.6589 22.3333 16.6172 23.8828 15.7969C25.4323 14.9635 27.0859 14.3451 28.8438 13.9414C29.7682 13.7201 30.8294 13.5768 32.0273 13.5117C33.2253 13.4466 34.4297 13.4141 35.6406 13.4141C36.8125 13.4141 37.9128 13.4271 38.9414 13.4531C39.9831 13.4792 40.8555 13.4922 41.5586 13.4922C41.4154 14.1042 41.3112 14.651 41.2461 15.1328C41.194 15.6016 41.168 16.0443 41.168 16.4609C41.168 17.0469 41.2135 17.5938 41.3047 18.1016C41.3958 18.5964 41.5195 19.1302 41.6758 19.7031ZM44.4297 34.9448C44.4297 34.4321 44.4948 33.9072 44.625 33.3701C44.7552 32.8249 44.9546 32.2918 45.2231 31.771C45.4917 31.2502 45.8294 30.7619 46.2363 30.3062C46.6514 29.8423 47.1356 29.4354 47.689 29.0854C48.2505 28.7355 48.8853 28.4588 49.5933 28.2554C50.3094 28.0519 51.1029 27.9502 51.9736 27.9502C52.8851 27.9502 53.703 28.0438 54.4272 28.231C55.1597 28.4181 55.8066 28.6785 56.3682 29.0122C56.9297 29.3377 57.4139 29.7243 57.8208 30.1719C58.2277 30.6195 58.5614 31.1037 58.8218 31.6245C59.0822 32.1453 59.2734 32.6906 59.3955 33.2603C59.5176 33.8218 59.5786 34.3833 59.5786 34.9448C59.5786 35.4819 59.5176 36.0272 59.3955 36.5806C59.2734 37.1258 59.0781 37.6548 58.8096 38.1675C58.5492 38.6802 58.2155 39.1644 57.8086 39.6201C57.4098 40.0677 56.9256 40.4583 56.356 40.792C55.7944 41.1257 55.1475 41.3901 54.415 41.5854C53.6908 41.7808 52.877 41.8784 51.9736 41.8784C51.1029 41.8784 50.3135 41.7808 49.6055 41.5854C48.8975 41.3983 48.2627 41.1379 47.7012 40.8042C47.1478 40.4705 46.6636 40.0799 46.2485 39.6323C45.8416 39.1766 45.4998 38.6924 45.2231 38.1797C44.9546 37.667 44.7552 37.134 44.625 36.5806C44.4948 36.0272 44.4297 35.4819 44.4297 34.9448ZM48.1528 34.896C48.1528 35.6691 48.2057 36.4219 48.3115 37.1543C48.4255 37.8867 48.6208 38.5378 48.8975 39.1074C49.1823 39.6771 49.5648 40.141 50.0449 40.499C50.5332 40.849 51.1517 41.0321 51.9004 41.0483C52.3968 41.0483 52.8403 40.967 53.231 40.8042C53.6216 40.6333 53.9634 40.4014 54.2563 40.1084C54.5493 39.8154 54.7975 39.4736 55.001 39.083C55.2044 38.6924 55.3713 38.2733 55.5015 37.8257C55.6317 37.3781 55.7253 36.9142 55.7822 36.4341C55.8473 35.9539 55.888 35.4779 55.9043 35.0059C55.9043 34.5257 55.8799 34.0374 55.8311 33.541C55.7822 33.0446 55.7008 32.5685 55.5869 32.1128C55.473 31.6489 55.3184 31.2176 55.123 30.8188C54.9359 30.4119 54.6999 30.062 54.415 29.769C54.1302 29.4679 53.7925 29.2319 53.4019 29.061C53.0194 28.8901 52.5718 28.8047 52.0591 28.8047C51.3104 28.8047 50.6878 28.9756 50.1914 29.3174C49.695 29.651 49.2962 30.0986 48.9951 30.6602C48.694 31.2217 48.4784 31.8727 48.3481 32.6133C48.2261 33.3457 48.161 34.1066 48.1528 34.896ZM72.7622 39.5225C72.5669 39.8154 72.3268 40.1043 72.042 40.3892C71.7572 40.6659 71.4194 40.9181 71.0288 41.146C70.6382 41.3657 70.1947 41.5407 69.6982 41.6709C69.2018 41.8092 68.6403 41.8784 68.0137 41.8784C66.9557 41.8784 66.0239 41.6912 65.2183 41.3169C64.4207 40.9344 63.7534 40.438 63.2163 39.8276C62.6792 39.2091 62.2723 38.5133 61.9956 37.7402C61.7271 36.9671 61.5928 36.1859 61.5928 35.3965C61.5928 34.8024 61.6497 34.2043 61.7637 33.6021C61.8857 32.9998 62.0688 32.422 62.313 31.8687C62.5571 31.3071 62.8664 30.7822 63.2407 30.2939C63.6151 29.8057 64.0627 29.3825 64.5835 29.0244C65.1043 28.6582 65.6984 28.3734 66.3657 28.1699C67.033 27.9583 67.7817 27.8525 68.6118 27.8525C69.0838 27.8525 69.5273 27.8932 69.9424 27.9746C70.3574 28.0479 70.7358 28.1496 71.0776 28.2798C71.4276 28.4019 71.7409 28.5443 72.0176 28.707C72.3024 28.8617 72.5506 29.0163 72.7622 29.1709V23.9219C72.7622 23.7998 72.7378 23.6696 72.689 23.5312C72.6483 23.3848 72.5669 23.2546 72.4448 23.1406C72.3228 23.0186 72.1559 22.9209 71.9443 22.8477C71.7327 22.7663 71.4561 22.7256 71.1143 22.7256V22.2495H76.3145V39.8521C76.3145 39.9741 76.3348 40.1043 76.3755 40.2427C76.4243 40.381 76.5098 40.5112 76.6318 40.6333C76.7539 40.7472 76.9207 40.8449 77.1323 40.9263C77.3521 41.0076 77.6287 41.0483 77.9624 41.0483V41.5H72.7622V39.5225ZM68.917 40.5967C69.446 40.5967 69.9098 40.499 70.3086 40.3037C70.7074 40.1084 71.0492 39.8643 71.334 39.5713C71.6188 39.2783 71.8507 38.9569 72.0298 38.6069C72.217 38.2489 72.3634 37.9111 72.4692 37.5938C72.5832 37.2682 72.6605 36.9875 72.7012 36.7515C72.7419 36.5073 72.7622 36.3486 72.7622 36.2754V31.5024L71.8223 32.772C71.7816 32.0314 71.6514 31.3682 71.4316 30.7822C71.334 30.5299 71.2119 30.2858 71.0654 30.0498C70.9189 29.8057 70.7358 29.59 70.5161 29.4028C70.3045 29.2157 70.0522 29.0651 69.7593 28.9512C69.4663 28.8372 69.1286 28.7803 68.7461 28.7803C68.1357 28.7803 67.6068 28.9349 67.1592 29.2441C66.7116 29.5534 66.3454 29.9766 66.0605 30.5137C65.7757 31.0426 65.5641 31.6611 65.4258 32.3691C65.2874 33.0771 65.2183 33.8299 65.2183 34.6274C65.2183 35.6691 65.3159 36.5643 65.5112 37.313C65.7147 38.0617 65.9832 38.6802 66.3169 39.1685C66.6506 39.6567 67.0412 40.0189 67.4888 40.2549C67.9364 40.4827 68.4124 40.5967 68.917 40.5967ZM83.4312 33.8706C83.4149 34.0496 83.4067 34.2246 83.4067 34.3955C83.4067 34.5583 83.4067 34.7251 83.4067 34.896C83.4067 35.6691 83.4556 36.4219 83.5532 37.1543C83.6509 37.8867 83.8299 38.5378 84.0903 39.1074C84.3589 39.6771 84.7292 40.141 85.2012 40.499C85.6732 40.849 86.2835 41.0321 87.0322 41.0483C87.5124 41.0483 87.9396 40.971 88.314 40.8164C88.6965 40.6618 89.0301 40.4502 89.3149 40.1816C89.5998 39.9049 89.8439 39.5835 90.0474 39.2173C90.2508 38.8511 90.4217 38.4523 90.5601 38.021L93.4409 38.9976C93.1479 39.4126 92.798 39.7951 92.3911 40.145C91.9842 40.495 91.5163 40.8001 90.9873 41.0605C90.4665 41.3128 89.8805 41.5122 89.2295 41.6587C88.5866 41.8052 87.8786 41.8784 87.1055 41.8784C86.2347 41.8784 85.4453 41.7808 84.7373 41.5854C84.0293 41.3983 83.3945 41.1379 82.833 40.8042C82.2796 40.4705 81.7954 40.0799 81.3804 39.6323C80.9735 39.1766 80.6317 38.6924 80.355 38.1797C80.0864 37.667 79.887 37.134 79.7568 36.5806C79.6266 36.0272 79.5615 35.4819 79.5615 34.9448C79.5615 34.4321 79.6185 33.9072 79.7324 33.3701C79.8545 32.8249 80.0417 32.2918 80.2939 31.771C80.5462 31.2502 80.8636 30.7619 81.2461 30.3062C81.6367 29.8423 82.1006 29.4354 82.6377 29.0854C83.1829 28.7355 83.8055 28.4588 84.5054 28.2554C85.2052 28.0519 85.9906 27.9502 86.8613 27.9502C88.139 27.9502 89.2254 28.1089 90.1206 28.4263C91.0239 28.7437 91.7645 29.175 92.3423 29.7202C92.9282 30.2573 93.3636 30.884 93.6484 31.6001C93.9414 32.3162 94.1204 33.0731 94.1855 33.8706H83.4312ZM86.9346 28.8047C86.3405 28.8047 85.8359 28.9146 85.4209 29.1343C85.014 29.354 84.6763 29.6551 84.4077 30.0376C84.1392 30.4201 83.9316 30.8717 83.7852 31.3926C83.6468 31.9053 83.5451 32.4587 83.48 33.0527H90.3647C90.3159 32.4668 90.2264 31.9175 90.0962 31.4048C89.9741 30.8921 89.7829 30.4445 89.5225 30.062C89.2702 29.6714 88.9325 29.3662 88.5093 29.1465C88.0942 28.9186 87.5693 28.8047 86.9346 28.8047ZM93.9951 20.4941H103.795V21.0361C103.424 21.0361 103.116 21.0654 102.872 21.124C102.628 21.1729 102.433 21.2461 102.286 21.3438C102.149 21.4414 102.052 21.5586 101.993 21.6953C101.935 21.832 101.905 21.9834 101.905 22.1494V22.2666C102.237 23.6826 102.594 25.0498 102.975 26.3682C103.365 27.6768 103.771 29.0049 104.19 30.3525C104.62 31.7002 105.064 33.1016 105.523 34.5566C105.992 36.0117 106.476 37.584 106.974 39.2734C107.53 37.7598 108.014 36.3486 108.424 35.04C108.834 33.7217 109.19 32.4912 109.493 31.3486C109.796 30.1963 110.05 29.1221 110.255 28.126C110.47 27.1201 110.655 26.168 110.812 25.2695L110.284 23.0869C110.216 22.8818 110.099 22.6621 109.933 22.4277C109.776 22.1836 109.562 21.959 109.288 21.7539C109.015 21.5488 108.673 21.3779 108.263 21.2412C107.862 21.1045 107.384 21.0361 106.827 21.0361V20.4941H116.642V21.0361C116.261 21.0361 115.948 21.0654 115.704 21.124C115.46 21.1729 115.265 21.2461 115.118 21.3438C114.981 21.4414 114.884 21.5586 114.825 21.6953C114.776 21.832 114.752 21.9834 114.752 22.1494V22.3252C115.064 23.7314 115.382 25.0938 115.704 26.4121C116.026 27.7207 116.368 29.0488 116.729 30.3965C117.091 31.7344 117.472 33.1309 117.872 34.5859C118.282 36.0312 118.731 37.5938 119.22 39.2734C119.913 37.3789 120.519 35.6406 121.036 34.0586C121.554 32.4668 122.003 30.9971 122.384 29.6494C122.765 28.3018 123.087 27.0615 123.351 25.9287C123.614 24.7861 123.839 23.7168 124.024 22.7207V22.6621C124.024 22.4277 123.98 22.2129 123.893 22.0176C123.805 21.8125 123.658 21.6416 123.453 21.5049C123.258 21.3584 122.999 21.2461 122.677 21.168C122.364 21.0801 121.974 21.0361 121.505 21.0361V20.4941H127.979C127.472 22.1055 126.905 23.7607 126.28 25.46C125.655 27.1592 124.996 28.8633 124.303 30.5723C123.619 32.2812 122.921 33.9805 122.208 35.6699C121.495 37.3594 120.797 39.0049 120.113 40.6064L115.221 41.5C114.576 39.4004 113.985 37.4082 113.448 35.5234C112.921 33.6387 112.423 31.793 111.954 29.9863C111.319 31.8027 110.66 33.5996 109.977 35.377C109.303 37.1543 108.604 38.8975 107.882 40.6064L102.989 41.5C102.462 39.791 101.949 38.1553 101.451 36.5928C100.963 35.0303 100.484 33.502 100.016 32.0078C99.5566 30.5137 99.1123 29.0342 98.6826 27.5693C98.2529 26.1045 97.8477 24.6104 97.4668 23.0869H97.4375C97.3691 22.8818 97.2568 22.6621 97.1006 22.4277C96.9443 22.1836 96.7246 21.959 96.4414 21.7539C96.168 21.5488 95.8311 21.3779 95.4307 21.2412C95.0303 21.1045 94.5518 21.0361 93.9951 21.0361V20.4941ZM135.809 41.5H128.949V41.0483C129.291 41.0483 129.567 41.0158 129.779 40.9507C129.999 40.8774 130.169 40.7839 130.292 40.6699C130.414 40.5479 130.495 40.4136 130.536 40.2671C130.584 40.1125 130.609 39.9497 130.609 39.7788V30.123C130.609 30.001 130.589 29.8667 130.548 29.7202C130.507 29.5656 130.426 29.4272 130.304 29.3052C130.19 29.175 130.023 29.0692 129.803 28.9878C129.592 28.8983 129.307 28.8535 128.949 28.8535V28.3774H135.809V28.8535C135.484 28.8535 135.211 28.8861 134.991 28.9512C134.78 29.0163 134.609 29.1017 134.479 29.2075C134.356 29.3133 134.271 29.4395 134.222 29.5859C134.173 29.7243 134.149 29.8708 134.149 30.0254V39.7788C134.149 39.9009 134.169 40.0352 134.21 40.1816C134.251 40.3281 134.328 40.4665 134.442 40.5967C134.564 40.7188 134.731 40.8245 134.942 40.9141C135.162 41.0036 135.451 41.0483 135.809 41.0483V41.5ZM130.499 25.1304C130.499 24.87 130.548 24.6258 130.646 24.3979C130.751 24.1619 130.89 23.9585 131.061 23.7876C131.231 23.6167 131.431 23.4824 131.659 23.3848C131.895 23.279 132.143 23.2261 132.403 23.2261C132.664 23.2261 132.908 23.279 133.136 23.3848C133.372 23.4824 133.575 23.6167 133.746 23.7876C133.917 23.9585 134.051 24.1619 134.149 24.3979C134.255 24.6258 134.308 24.87 134.308 25.1304C134.308 25.3908 134.255 25.639 134.149 25.875C134.051 26.1029 133.917 26.3022 133.746 26.4731C133.575 26.644 133.372 26.7783 133.136 26.876C132.908 26.9736 132.664 27.0225 132.403 27.0225C132.143 27.0225 131.895 26.9736 131.659 26.876C131.431 26.7783 131.231 26.644 131.061 26.4731C130.89 26.3022 130.751 26.1029 130.646 25.875C130.548 25.639 130.499 25.3908 130.499 25.1304ZM137.152 29.1465C137.38 28.6989 137.522 28.2554 137.579 27.8159C137.644 27.3683 137.677 26.9777 137.677 26.644C137.677 26.5545 137.673 26.4772 137.665 26.4121C137.665 26.3389 137.665 26.2778 137.665 26.229C137.656 26.172 137.652 26.1191 137.652 26.0703L138.104 25.9971C138.128 26.3633 138.226 26.6766 138.397 26.937C138.576 27.1974 138.792 27.4172 139.044 27.5962C139.304 27.7671 139.589 27.9054 139.898 28.0112C140.208 28.117 140.513 28.1984 140.814 28.2554C141.115 28.3042 141.392 28.3368 141.644 28.353C141.904 28.3693 142.116 28.3774 142.279 28.3774H151.825C151.605 28.8332 151.463 29.2808 151.397 29.7202C151.332 30.1597 151.3 30.5462 151.3 30.8799C151.3 30.9694 151.3 31.0508 151.3 31.124C151.3 31.1891 151.304 31.2461 151.312 31.2949C151.312 31.3519 151.316 31.4048 151.324 31.4536L150.885 31.5269C150.852 31.1606 150.746 30.8473 150.567 30.5869C150.396 30.3265 150.181 30.1108 149.92 29.9399C149.668 29.7609 149.387 29.6185 149.078 29.5127C148.769 29.4069 148.464 29.3296 148.163 29.2808C147.87 29.2238 147.593 29.1872 147.333 29.1709C147.072 29.1546 146.865 29.1465 146.71 29.1465H146.478C145.705 29.1872 145.013 29.3784 144.403 29.7202C143.801 30.0539 143.288 30.4974 142.865 31.0508C142.45 31.596 142.128 32.2227 141.9 32.9307C141.681 33.6387 141.567 34.3792 141.559 35.1523C141.559 35.9255 141.624 36.6701 141.754 37.3862C141.884 38.0942 142.092 38.7209 142.376 39.2661C142.661 39.8114 143.036 40.2467 143.5 40.5723C143.963 40.8896 144.525 41.0483 145.184 41.0483C145.664 41.0483 146.079 40.971 146.429 40.8164C146.779 40.6618 147.08 40.4502 147.333 40.1816C147.585 39.9049 147.8 39.5835 147.979 39.2173C148.159 38.8511 148.317 38.4523 148.456 38.021L151.324 38.9976C151.031 39.4126 150.694 39.7951 150.311 40.145C149.937 40.495 149.501 40.8001 149.005 41.0605C148.517 41.3128 147.963 41.5122 147.345 41.6587C146.726 41.8052 146.03 41.8784 145.257 41.8784C144.435 41.8784 143.683 41.7889 142.999 41.6099C142.324 41.4308 141.713 41.1826 141.168 40.8652C140.631 40.5479 140.159 40.1776 139.752 39.7544C139.353 39.3231 139.02 38.8592 138.751 38.3628C138.482 37.8664 138.283 37.3496 138.153 36.8125C138.023 36.2754 137.958 35.7383 137.958 35.2012C137.958 34.5176 138.059 33.8706 138.263 33.2603C138.466 32.6418 138.759 32.0762 139.142 31.5635C139.532 31.0426 140.012 30.5788 140.582 30.1719C141.152 29.765 141.803 29.4232 142.535 29.1465H137.152ZM159.906 41.5H152.899V41.0483C153.241 41.0483 153.517 41.0158 153.729 40.9507C153.941 40.8774 154.107 40.7839 154.229 40.6699C154.352 40.5479 154.433 40.4136 154.474 40.2671C154.522 40.1125 154.547 39.9497 154.547 39.7788V26.3022C154.547 26.1802 154.522 26.05 154.474 25.9116C154.433 25.7733 154.352 25.6471 154.229 25.5332C154.107 25.4111 153.941 25.3094 153.729 25.228C153.517 25.1466 153.241 25.106 152.899 25.106V24.6543H158.246V30.5747C158.408 30.2899 158.604 30.0132 158.832 29.7446C159.059 29.4679 159.324 29.2157 159.625 28.9878C159.934 28.7599 160.28 28.5605 160.663 28.3896C161.053 28.2188 161.493 28.0885 161.981 27.999C162.665 27.877 163.275 27.8566 163.812 27.938C164.349 28.0194 164.821 28.174 165.228 28.4019C165.635 28.6297 165.981 28.9227 166.266 29.2808C166.55 29.6307 166.782 30.0213 166.961 30.4526C167.14 30.884 167.271 31.3438 167.352 31.832C167.433 32.3203 167.474 32.8086 167.474 33.2969V39.7788C167.474 39.9009 167.494 40.0352 167.535 40.1816C167.576 40.3281 167.653 40.4665 167.767 40.5967C167.881 40.7188 168.044 40.8245 168.255 40.9141C168.475 41.0036 168.764 41.0483 169.122 41.0483V41.5H162.274V41.0483C162.616 41.0483 162.892 41.0158 163.104 40.9507C163.316 40.8774 163.482 40.7839 163.604 40.6699C163.727 40.5479 163.808 40.4136 163.849 40.2671C163.897 40.1125 163.922 39.9497 163.922 39.7788V32.5522C163.922 31.9175 163.849 31.3804 163.702 30.9409C163.556 30.5015 163.36 30.1556 163.116 29.9033C162.872 29.6429 162.587 29.472 162.262 29.3906C161.936 29.3092 161.59 29.3133 161.224 29.4028C160.72 29.5249 160.28 29.7406 159.906 30.0498C159.54 30.3509 159.234 30.7171 158.99 31.1484C158.754 31.5716 158.575 32.0477 158.453 32.5767C158.331 33.1056 158.262 33.6549 158.246 34.2246V39.7788C158.246 39.9009 158.266 40.0352 158.307 40.1816C158.347 40.3281 158.425 40.4665 158.539 40.5967C158.661 40.7188 158.827 40.8245 159.039 40.9141C159.259 41.0036 159.548 41.0483 159.906 41.0483V41.5ZM185.104 42.457C183.215 42.457 181.432 42.138 179.752 41.5C178.085 40.862 176.62 39.9701 175.357 38.8242C174.107 37.6654 173.118 36.2917 172.389 34.7031C171.66 33.1146 171.295 31.3698 171.295 29.4688C171.295 27.6849 171.666 25.9987 172.408 24.4102C173.15 22.8216 174.212 21.3698 175.592 20.0547C176.972 18.7266 178.645 17.5612 180.611 16.5586C182.577 15.543 184.778 14.7227 187.213 14.0977L185.729 13.0625C184.804 12.4375 184.14 11.7018 183.736 10.8555C183.333 9.99609 183.131 9.11719 183.131 8.21875C183.131 7.56771 183.222 6.92318 183.404 6.28516C183.6 5.64714 183.867 5.05469 184.205 4.50781C184.544 3.96094 184.941 3.47917 185.396 3.0625C185.852 2.63281 186.354 2.30078 186.9 2.06641L187.369 2.78906C186.497 3.41406 186.061 4.13021 186.061 4.9375C186.061 5.67969 186.399 6.47396 187.076 7.32031C187.753 8.16667 188.736 9.05208 190.025 9.97656C192.2 11.5651 194.107 13.0625 195.748 14.4688C197.402 15.862 198.782 17.2487 199.889 18.6289C201.008 20.0091 201.855 21.4154 202.428 22.8477C203.001 24.2669 203.307 25.8034 203.346 27.457C203.346 29.1367 203.105 30.6732 202.623 32.0664C202.141 33.4466 201.477 34.6966 200.631 35.8164C199.785 36.9232 198.782 37.8932 197.623 38.7266C196.464 39.5599 195.208 40.2565 193.854 40.8164C192.499 41.3633 191.08 41.7734 189.596 42.0469C188.111 42.3203 186.614 42.457 185.104 42.457ZM196.744 29.0586C196.744 27.7565 196.601 26.526 196.314 25.3672C196.041 24.1953 195.585 23.0495 194.947 21.9297C194.322 20.8099 193.489 19.6966 192.447 18.5898C191.419 17.4831 190.143 16.3438 188.619 15.1719C187.59 15.3932 186.614 15.7383 185.689 16.207C184.765 16.6628 183.906 17.2227 183.111 17.8867C182.317 18.5378 181.594 19.2799 180.943 20.1133C180.305 20.9336 179.758 21.8125 179.303 22.75C178.86 23.6745 178.515 24.6445 178.268 25.6602C178.02 26.6628 177.896 27.6784 177.896 28.707C177.896 29.7227 178.007 30.7253 178.229 31.7148C178.45 32.6914 178.762 33.6289 179.166 34.5273C179.583 35.4128 180.09 36.2331 180.689 36.9883C181.288 37.7435 181.959 38.3945 182.701 38.9414C183.456 39.4883 184.277 39.918 185.162 40.2305C186.061 40.543 187.011 40.6992 188.014 40.6992C189.225 40.6992 190.357 40.4193 191.412 39.8594C192.48 39.2865 193.404 38.4922 194.186 37.4766C194.98 36.4479 195.605 35.224 196.061 33.8047C196.516 32.3724 196.744 30.7904 196.744 29.0586ZM210.047 33.8706C210.031 34.0496 210.023 34.2246 210.023 34.3955C210.023 34.5583 210.023 34.7251 210.023 34.896C210.023 35.6691 210.072 36.4219 210.169 37.1543C210.267 37.8867 210.446 38.5378 210.707 39.1074C210.975 39.6771 211.345 40.141 211.817 40.499C212.289 40.849 212.9 41.0321 213.648 41.0483C214.129 41.0483 214.556 40.971 214.93 40.8164C215.313 40.6618 215.646 40.4502 215.931 40.1816C216.216 39.9049 216.46 39.5835 216.664 39.2173C216.867 38.8511 217.038 38.4523 217.176 38.021L220.057 38.9976C219.764 39.4126 219.414 39.7951 219.007 40.145C218.6 40.495 218.132 40.8001 217.604 41.0605C217.083 41.3128 216.497 41.5122 215.846 41.6587C215.203 41.8052 214.495 41.8784 213.722 41.8784C212.851 41.8784 212.062 41.7808 211.354 41.5854C210.646 41.3983 210.011 41.1379 209.449 40.8042C208.896 40.4705 208.412 40.0799 207.997 39.6323C207.59 39.1766 207.248 38.6924 206.971 38.1797C206.703 37.667 206.503 37.134 206.373 36.5806C206.243 36.0272 206.178 35.4819 206.178 34.9448C206.178 34.4321 206.235 33.9072 206.349 33.3701C206.471 32.8249 206.658 32.2918 206.91 31.771C207.162 31.2502 207.48 30.7619 207.862 30.3062C208.253 29.8423 208.717 29.4354 209.254 29.0854C209.799 28.7355 210.422 28.4588 211.122 28.2554C211.821 28.0519 212.607 27.9502 213.478 27.9502C214.755 27.9502 215.842 28.1089 216.737 28.4263C217.64 28.7437 218.381 29.175 218.958 29.7202C219.544 30.2573 219.98 30.884 220.265 31.6001C220.558 32.3162 220.737 33.0731 220.802 33.8706H210.047ZM213.551 28.8047C212.957 28.8047 212.452 28.9146 212.037 29.1343C211.63 29.354 211.292 29.6551 211.024 30.0376C210.755 30.4201 210.548 30.8717 210.401 31.3926C210.263 31.9053 210.161 32.4587 210.096 33.0527H216.981C216.932 32.4668 216.843 31.9175 216.712 31.4048C216.59 30.8921 216.399 30.4445 216.139 30.062C215.886 29.6714 215.549 29.3662 215.125 29.1465C214.71 28.9186 214.186 28.8047 213.551 28.8047ZM220.912 28.3774H228.016V28.8535C227.756 28.8535 227.54 28.8739 227.369 28.9146C227.206 28.9552 227.084 29.0244 227.003 29.1221C226.922 29.2116 226.873 29.3296 226.856 29.4761C226.848 29.6226 226.869 29.7975 226.917 30.001C227.341 31.8158 227.849 33.6061 228.443 35.3721C229.046 37.1299 229.754 38.8551 230.567 40.5479C230.974 39.7585 231.353 38.9365 231.703 38.082C232.061 37.2275 232.386 36.3527 232.679 35.4575C232.98 34.5623 233.245 33.6549 233.473 32.7354C233.709 31.8158 233.904 30.9043 234.059 30.001C234.107 29.7731 234.083 29.5859 233.985 29.4395C233.896 29.293 233.766 29.179 233.595 29.0977C233.432 29.0081 233.245 28.9471 233.033 28.9146C232.83 28.882 232.639 28.8617 232.459 28.8535V28.3774H236.964C236.744 29.0529 236.5 29.7609 236.231 30.5015C235.963 31.242 235.682 31.9989 235.389 32.772C235.096 33.5369 234.791 34.306 234.474 35.0791C234.156 35.8441 233.835 36.5887 233.509 37.313C233.184 38.0373 232.858 38.729 232.533 39.3882C232.215 40.0474 231.902 40.6496 231.593 41.1948L227.259 41.7441C226.332 39.8561 225.53 37.9274 224.854 35.958C224.187 33.9886 223.613 32.0029 223.133 30.001C223.093 29.8708 223.019 29.7365 222.914 29.5981C222.816 29.4598 222.678 29.3377 222.499 29.2319C222.319 29.118 222.1 29.0285 221.839 28.9634C221.579 28.8901 221.27 28.8535 220.912 28.8535V28.3774Z" fill="white"/>
</svg>
