<svg width="46" height="46" viewBox="0 0 46 46" fill="none" xmlns="http://www.w3.org/2000/svg">
<path d="M9.614 8.04138H36.1186C37.0171 8.04138 37.8264 8.85069 37.8264 9.74913V36.2538C37.8264 37.1522 37.0171 37.9615 36.1186 37.9615H9.614C8.71556 37.9615 7.90625 37.1522 7.90625 36.2538V9.74913C7.90625 8.85069 8.71556 8.04138 9.614 8.04138ZM29.1539 24.8414H33.2868L33.4664 20.8883H29.1539V17.9688C29.1539 16.8461 29.3782 16.2164 30.8157 16.2164H33.3313L33.4219 12.5321C33.4219 12.5321 32.2992 12.3524 30.682 12.3524C26.7289 12.3524 24.9766 14.8235 24.9766 17.4743V20.8883H22.057V24.8414H24.9766V35.8024H29.1539V24.8414Z" fill="#1877F2"/>
</svg>
