<svg width="30" height="30" viewBox="0 0 30 30" fill="none" xmlns="http://www.w3.org/2000/svg">
<path d="M29.9412 3.57343C28.8181 4.18185 27.6283 4.58346 26.41 4.76534C27.6926 3.81681 28.653 2.3293 29.1138 0.577507C27.925 1.43107 26.6075 2.0524 25.205 2.39844C24.2797 1.18104 23.0536 0.373608 21.7171 0.101515C20.3805 -0.170579 19.0084 0.107896 17.8137 0.893695C16.619 1.67949 15.6686 2.92865 15.1101 4.44718C14.5516 5.9657 14.4162 7.66863 14.725 9.29152C9.6125 8.9947 5.08375 5.97263 2.05 1.408C1.49849 2.56117 1.21083 3.87645 1.2175 5.21442C1.2175 7.84431 2.305 10.1558 3.9525 11.5139C2.97607 11.4756 2.02121 11.1508 1.1675 10.5665V10.6588C1.16695 12.4065 1.65784 14.1006 2.55688 15.4537C3.45593 16.8068 4.70777 17.7356 6.1 18.0824C5.19787 18.3798 4.25302 18.4245 3.335 18.2132C3.73015 19.7173 4.49708 21.0321 5.52877 21.9742C6.56046 22.9163 7.80544 23.4386 9.09 23.4683C6.91441 25.5691 4.2281 26.7093 1.4625 26.7057C0.975 26.7057 0.48875 26.6703 0 26.6027C2.81964 28.824 6.09814 30.0031 9.44625 30C20.7625 30 26.9438 18.4715 26.9438 8.49179C26.9438 8.16882 26.9438 7.84585 26.925 7.52288C28.1325 6.4538 29.174 5.12648 30 3.60419L29.9412 3.57343Z" fill="#1DA1F2"/>
</svg>
