<svg width="24" height="20" viewBox="0 0 24 20" fill="none" xmlns="http://www.w3.org/2000/svg">
<path d="M23.0532 17.8972C22.9884 17.9764 22.8713 18.0711 22.6372 18.2607C22.403 18.4503 22.2859 18.5451 22.1881 18.5975C21.615 18.9047 20.8397 18.7464 20.5153 18.2559C20.4599 18.1721 20.4123 18.0437 20.3173 17.7869C20.2134 17.5063 20.1615 17.366 20.1514 17.2673C20.0923 16.6859 20.6918 16.2006 21.41 16.2485C21.532 16.2566 21.7053 16.2986 22.0519 16.3827C22.3691 16.4597 22.5277 16.4981 22.6312 16.543C23.2371 16.8056 23.4327 17.4332 23.0532 17.8972Z" stroke="#1C274C" stroke-linecap="round"/>
<ellipse cx="10.4475" cy="8.77381" rx="9.3" ry="7.52857" stroke="#1C274C" stroke-width="2"/>
</svg>
