<svg width="60" height="60" viewBox="0 0 60 60" fill="none" xmlns="http://www.w3.org/2000/svg">
<path d="M22.5 33.75L37.5 41.25M37.5 18.75L22.5 26.25M45 52.5C40.8577 52.5 37.5 49.1423 37.5 45C37.5 40.8577 40.8577 37.5 45 37.5C49.1423 37.5 52.5 40.8577 52.5 45C52.5 49.1423 49.1423 52.5 45 52.5ZM15 37.5C10.8579 37.5 7.5 34.1423 7.5 30C7.5 25.8577 10.8579 22.5 15 22.5C19.1421 22.5 22.5 25.8577 22.5 30C22.5 34.1423 19.1421 37.5 15 37.5ZM45 22.5C40.8577 22.5 37.5 19.1421 37.5 15C37.5 10.8579 40.8577 7.5 45 7.5C49.1423 7.5 52.5 10.8579 52.5 15C52.5 19.1421 49.1423 22.5 45 22.5Z" stroke="black" stroke-width="5" stroke-linecap="round" stroke-linejoin="round"/>
</svg>
