<svg width="23" height="23" viewBox="0 0 23 23" fill="none" xmlns="http://www.w3.org/2000/svg">
<mask id="path-1-inside-1_2_332" fill="white">
<path d="M19.4055 15.8123C18.2225 15.8123 17.1752 16.3873 16.5212 17.2699L7.05669 12.447C7.13862 12.1444 7.18678 11.8288 7.18678 11.5004C7.18678 11.0892 7.11419 10.6961 6.98769 10.3288L16.5054 5.70993C17.1587 6.60408 18.2124 7.18772 19.4055 7.18772C21.3907 7.18772 22.9993 5.57839 22.9993 3.59386C22.9993 1.60933 21.3907 0 19.4055 0C17.4203 0 15.8118 1.60933 15.8118 3.59386C15.8118 3.87275 15.847 4.143 15.9074 4.40392L6.25312 9.08888C5.59547 8.36364 4.64959 7.90578 3.59375 7.90578C1.60928 7.90578 0 9.51511 0 11.4996C0 13.4842 1.60928 15.0935 3.59375 15.0935C4.73656 15.0935 5.75287 14.5587 6.41125 13.7264L15.9146 18.5702C15.8499 18.839 15.8125 19.1179 15.8125 19.4061C15.8125 21.3907 17.4211 23 19.4062 23C21.3914 23 23 21.3907 23 19.4061C23 17.4216 21.3907 15.8123 19.4055 15.8123ZM19.4055 1.43683C20.5965 1.43683 21.5618 2.40214 21.5618 3.59314C21.5618 4.78415 20.5965 5.74946 19.4055 5.74946C18.2146 5.74946 17.2493 4.78415 17.2493 3.59314C17.2493 2.40214 18.2146 1.43683 19.4055 1.43683ZM3.59303 13.656C2.40206 13.656 1.43678 12.6906 1.43678 11.4996C1.43678 10.3086 2.40206 9.34332 3.59303 9.34332C4.784 9.34332 5.74928 10.3094 5.74928 11.4996C5.74928 12.6899 4.784 13.656 3.59303 13.656ZM19.4055 21.5625C18.2146 21.5625 17.2493 20.5971 17.2493 19.4061C17.2493 18.2151 18.2146 17.2498 19.4055 17.2498C20.5965 17.2498 21.5618 18.2151 21.5618 19.4061C21.5618 20.5971 20.5965 21.5625 19.4055 21.5625Z"/>
</mask>
<path d="M19.4055 15.8123C18.2225 15.8123 17.1752 16.3873 16.5212 17.2699L7.05669 12.447C7.13862 12.1444 7.18678 11.8288 7.18678 11.5004C7.18678 11.0892 7.11419 10.6961 6.98769 10.3288L16.5054 5.70993C17.1587 6.60408 18.2124 7.18772 19.4055 7.18772C21.3907 7.18772 22.9993 5.57839 22.9993 3.59386C22.9993 1.60933 21.3907 0 19.4055 0C17.4203 0 15.8118 1.60933 15.8118 3.59386C15.8118 3.87275 15.847 4.143 15.9074 4.40392L6.25312 9.08888C5.59547 8.36364 4.64959 7.90578 3.59375 7.90578C1.60928 7.90578 0 9.51511 0 11.4996C0 13.4842 1.60928 15.0935 3.59375 15.0935C4.73656 15.0935 5.75287 14.5587 6.41125 13.7264L15.9146 18.5702C15.8499 18.839 15.8125 19.1179 15.8125 19.4061C15.8125 21.3907 17.4211 23 19.4062 23C21.3914 23 23 21.3907 23 19.4061C23 17.4216 21.3907 15.8123 19.4055 15.8123ZM19.4055 1.43683C20.5965 1.43683 21.5618 2.40214 21.5618 3.59314C21.5618 4.78415 20.5965 5.74946 19.4055 5.74946C18.2146 5.74946 17.2493 4.78415 17.2493 3.59314C17.2493 2.40214 18.2146 1.43683 19.4055 1.43683ZM3.59303 13.656C2.40206 13.656 1.43678 12.6906 1.43678 11.4996C1.43678 10.3086 2.40206 9.34332 3.59303 9.34332C4.784 9.34332 5.74928 10.3094 5.74928 11.4996C5.74928 12.6899 4.784 13.656 3.59303 13.656ZM19.4055 21.5625C18.2146 21.5625 17.2493 20.5971 17.2493 19.4061C17.2493 18.2151 18.2146 17.2498 19.4055 17.2498C20.5965 17.2498 21.5618 18.2151 21.5618 19.4061C21.5618 20.5971 20.5965 21.5625 19.4055 21.5625Z" fill="white"/>
<path d="M16.5212 17.2699L15.1591 19.9429L17.4205 21.0953L18.9315 19.0561L16.5212 17.2699ZM7.05669 12.447L4.16097 11.6629L3.52434 14.014L5.69459 15.1199L7.05669 12.447ZM6.98769 10.3288L5.6779 7.62979L3.28511 8.79098L4.1512 11.3057L6.98769 10.3288ZM16.5054 5.70993L18.9276 3.94001L17.4496 1.91713L15.1956 3.01095L16.5054 5.70993ZM15.9074 4.40392L17.2171 7.10291L19.3695 6.05842L18.8301 3.7276L15.9074 4.40392ZM6.25312 9.08888L4.03078 11.1041L5.54068 12.7692L7.56288 11.7879L6.25312 9.08888ZM6.41125 13.7264L7.77358 11.0536L5.5834 9.93723L4.05834 11.8653L6.41125 13.7264ZM15.9146 18.5702L18.8313 19.2721L19.3848 16.9718L17.2769 15.8974L15.9146 18.5702ZM19.4055 12.8123C17.225 12.8123 15.3021 13.8763 14.1108 15.4838L18.9315 19.0561C19.0484 18.8983 19.22 18.8123 19.4055 18.8123V12.8123ZM17.8833 14.597L8.41878 9.77403L5.69459 15.1199L15.1591 19.9429L17.8833 14.597ZM9.95241 13.2311C10.0948 12.7053 10.1868 12.1253 10.1868 11.5004H4.18678C4.18678 11.5324 4.18247 11.5835 4.16097 11.6629L9.95241 13.2311ZM10.1868 11.5004C10.1868 10.7326 10.0508 10.0098 9.82417 9.35184L4.1512 11.3057C4.17761 11.3823 4.18678 11.4458 4.18678 11.5004H10.1868ZM8.29747 13.0277L17.8152 8.4089L15.1956 3.01095L5.6779 7.62979L8.29747 13.0277ZM14.0831 7.47984C15.2727 9.10784 17.2074 10.1877 19.4055 10.1877V4.18772C19.2174 4.18772 19.0448 4.10032 18.9276 3.94001L14.0831 7.47984ZM19.4055 10.1877C23.0481 10.1877 25.9993 7.23477 25.9993 3.59386H19.9993C19.9993 3.92202 19.7334 4.18772 19.4055 4.18772V10.1877ZM25.9993 3.59386C25.9993 -0.0470438 23.0481 -3 19.4055 -3V3C19.7334 3 19.9993 3.26571 19.9993 3.59386H25.9993ZM19.4055 -3C15.763 -3 12.8118 -0.0470427 12.8118 3.59386H18.8118C18.8118 3.26571 19.0777 3 19.4055 3V-3ZM12.8118 3.59386C12.8118 4.12696 12.8793 4.62502 12.9846 5.08024L18.8301 3.7276C18.8147 3.66099 18.8118 3.61853 18.8118 3.59386H12.8118ZM14.5976 1.70493L4.94337 6.38989L7.56288 11.7879L17.2171 7.10291L14.5976 1.70493ZM8.47547 7.07364C7.27893 5.75413 5.53947 4.90578 3.59375 4.90578V10.9058C3.75971 10.9058 3.91201 10.9731 4.03078 11.1041L8.47547 7.07364ZM3.59375 4.90578C-0.047662 4.90578 -3 7.85835 -3 11.4996H3C3 11.1719 3.26622 10.9058 3.59375 10.9058V4.90578ZM-3 11.4996C-3 15.1409 -0.0476615 18.0935 3.59375 18.0935V12.0935C3.26622 12.0935 3 11.8274 3 11.4996H-3ZM3.59375 18.0935C5.69648 18.0935 7.56387 17.105 8.76416 15.5875L4.05834 11.8653C3.94188 12.0125 3.77665 12.0935 3.59375 12.0935V18.0935ZM5.04891 16.3992L14.5522 21.243L17.2769 15.8974L7.77358 11.0536L5.04891 16.3992ZM12.9978 17.8683C12.884 18.3414 12.8125 18.8566 12.8125 19.4061H18.8125C18.8125 19.3793 18.8158 19.3366 18.8313 19.2721L12.9978 17.8683ZM12.8125 19.4061C12.8125 23.047 15.7637 26 19.4062 26V20C19.0784 20 18.8125 19.7343 18.8125 19.4061H12.8125ZM19.4062 26C23.0488 26 26 23.047 26 19.4061H20C20 19.7343 19.7341 20 19.4062 20V26ZM26 19.4061C26 15.7645 23.0473 12.8123 19.4055 12.8123V18.8123C19.7342 18.8123 20 19.0788 20 19.4061H26ZM19.4055 4.43683C18.9396 4.43683 18.5618 4.0589 18.5618 3.59314H24.5618C24.5618 0.745372 22.2534 -1.56317 19.4055 -1.56317V4.43683ZM18.5618 3.59314C18.5618 3.12738 18.9396 2.74946 19.4055 2.74946V8.74946C22.2534 8.74946 24.5618 6.44092 24.5618 3.59314H18.5618ZM19.4055 2.74946C19.8715 2.74946 20.2493 3.12738 20.2493 3.59314H14.2493C14.2493 6.44092 16.5576 8.74946 19.4055 8.74946V2.74946ZM20.2493 3.59314C20.2493 4.0589 19.8715 4.43683 19.4055 4.43683V-1.56317C16.5576 -1.56317 14.2493 0.745372 14.2493 3.59314H20.2493ZM3.59303 10.656C4.059 10.656 4.43678 11.0339 4.43678 11.4996H-1.56322C-1.56322 14.3474 0.745121 16.656 3.59303 16.656V10.656ZM4.43678 11.4996C4.43678 11.9654 4.05901 12.3433 3.59303 12.3433V6.34332C0.745117 6.34332 -1.56322 8.65187 -1.56322 11.4996H4.43678ZM3.59303 12.3433C3.1264 12.3433 2.74928 11.9655 2.74928 11.4996H8.74928C8.74928 8.65324 6.4416 6.34332 3.59303 6.34332V12.3433ZM2.74928 11.4996C2.74928 11.0338 3.12641 10.656 3.59303 10.656V16.656C6.44159 16.656 8.74928 14.346 8.74928 11.4996H2.74928ZM19.4055 18.5625C19.8715 18.5625 20.2493 18.9404 20.2493 19.4061H14.2493C14.2493 22.2539 16.5576 24.5625 19.4055 24.5625V18.5625ZM20.2493 19.4061C20.2493 19.8719 19.8715 20.2498 19.4055 20.2498V14.2498C16.5576 14.2498 14.2493 16.5584 14.2493 19.4061H20.2493ZM19.4055 20.2498C18.9396 20.2498 18.5618 19.8719 18.5618 19.4061H24.5618C24.5618 16.5584 22.2534 14.2498 19.4055 14.2498V20.2498ZM18.5618 19.4061C18.5618 18.9404 18.9396 18.5625 19.4055 18.5625V24.5625C22.2534 24.5625 24.5618 22.2539 24.5618 19.4061H18.5618Z" fill="#0D96F6" mask="url(#path-1-inside-1_2_332)"/>
</svg>
