<svg width="25" height="25" viewBox="0 0 25 25" fill="none" xmlns="http://www.w3.org/2000/svg">
<path fill-rule="evenodd" clip-rule="evenodd" d="M0.833333 0C0.373097 0 0 0.373097 0 0.833333V19.1667C0 19.6268 0.373097 20 0.833333 20H4.16667V24.1667C4.16667 24.4922 4.35612 24.7878 4.65178 24.9238C4.94745 25.0597 5.29523 25.0112 5.54233 24.7993L11.1416 20H19.1667C19.3877 20 19.5997 19.9122 19.756 19.756L24.756 14.7559C24.9122 14.5996 25 14.3877 25 14.1667V0.833333C25 0.373097 24.6268 0 24.1667 0H0.833333ZM16.6667 13.3333V5H18.3333V13.3333H16.6667ZM11.6667 5V13.3333H13.3333V5H11.6667Z" fill="black"/>
</svg>
