<svg width="25" height="25" viewBox="0 0 25 25" fill="none" xmlns="http://www.w3.org/2000/svg">
<path fill-rule="evenodd" clip-rule="evenodd" d="M7.8625 25C17.2962 25 22.4563 15.3804 22.4563 7.03941C22.4563 6.76558 22.4562 6.49381 22.4412 6.22306C23.445 5.3308 24.3113 4.22295 25 2.95534C24.065 3.46609 23.0712 3.80103 22.055 3.9487C23.125 3.15952 23.9262 1.91967 24.31 0.456686C23.3025 1.19202 22.2012 1.71099 21.0525 1.98945C19.11 -0.551941 15.8613 -0.675072 13.795 1.71555C12.4638 3.25699 11.8975 5.55526 12.3112 7.74743C8.1875 7.49207 4.345 5.09533 1.74 1.1525C0.37875 4.03692 1.075 7.72555 3.32875 9.57774C2.5125 9.54851 1.71375 9.27805 1 8.78885V8.86896C1.00125 11.8734 2.7225 14.4604 5.115 15.0557C4.36 15.3096 3.5675 15.3464 2.8 15.1633C3.47125 17.7355 5.3975 19.4972 7.59125 19.548C5.775 21.3048 3.53125 22.2587 1.22125 22.2557C0.81375 22.2541 0.40625 22.2249 0 22.1649C2.34625 24.0171 5.075 25 7.8625 24.9954" fill="black"/>
</svg>
